<mxfile host="Electron" modified="2024-02-18T12:05:49.534Z" agent="Mozilla/5.0 (Macintosh; Intel Mac OS X 10_15_7) AppleWebKit/537.36 (KHTML, like Gecko) draw.io/23.1.5 Chrome/120.0.6099.109 Electron/28.1.0 Safari/537.36" etag="vkCaXbsSw7FfMk5_aB5k" version="23.1.5" type="device">
  <diagram id="TYL_hx7GoGK296eRrg_1" name="Page-1">
    <mxGraphModel dx="2654" dy="1052" grid="0" gridSize="10" guides="1" tooltips="1" connect="1" arrows="1" fold="1" page="1" pageScale="1" pageWidth="1100" pageHeight="850" background="#ffffff" math="0" shadow="0">
      <root>
        <mxCell id="0" />
        <mxCell id="1" parent="0" />
        <mxCell id="zdkOnZrTmFXVlxLLtSqA-1" value="" style="rounded=0;whiteSpace=wrap;html=1;fillColor=none;strokeColor=#D4D4D4;" vertex="1" parent="1">
          <mxGeometry x="-19" y="559" width="1188" height="738" as="geometry" />
        </mxCell>
        <mxCell id="_A45xtu50W-eqhlQ53FJ-47" value="" style="rounded=1;whiteSpace=wrap;html=1;fontFamily=Helvetica;fontSize=11;fontColor=#1C1C1C;labelBackgroundColor=none;fillColor=none;dashed=1;strokeColor=#4D4D4D;arcSize=5;" parent="1" vertex="1">
          <mxGeometry x="809" y="780" width="280" height="130" as="geometry" />
        </mxCell>
        <mxCell id="_A45xtu50W-eqhlQ53FJ-62" style="edgeStyle=orthogonalEdgeStyle;rounded=0;orthogonalLoop=1;jettySize=auto;html=1;strokeColor=#242424;align=center;verticalAlign=middle;fontFamily=Helvetica;fontSize=11;fontColor=#1C1C1C;labelBackgroundColor=none;endArrow=classic;exitX=1;exitY=0.25;exitDx=0;exitDy=0;exitPerimeter=0;entryX=0;entryY=0.25;entryDx=0;entryDy=0;entryPerimeter=0;" parent="1" source="_A45xtu50W-eqhlQ53FJ-22" target="_A45xtu50W-eqhlQ53FJ-25" edge="1">
          <mxGeometry relative="1" as="geometry" />
        </mxCell>
        <mxCell id="_A45xtu50W-eqhlQ53FJ-63" value="Invoke&lt;br&gt;(Optional)" style="edgeLabel;html=1;align=center;verticalAlign=middle;resizable=0;points=[];fontFamily=Helvetica;fontSize=11;fontColor=#6B6B6B;labelBackgroundColor=none;" parent="_A45xtu50W-eqhlQ53FJ-62" vertex="1" connectable="0">
          <mxGeometry x="0.0865" y="-2" relative="1" as="geometry">
            <mxPoint x="-3" y="-2" as="offset" />
          </mxGeometry>
        </mxCell>
        <mxCell id="_A45xtu50W-eqhlQ53FJ-22" value="CloudWatch&lt;br&gt;Query Log" style="sketch=0;points=[[0,0,0],[0.25,0,0],[0.5,0,0],[0.75,0,0],[1,0,0],[0,1,0],[0.25,1,0],[0.5,1,0],[0.75,1,0],[1,1,0],[0,0.25,0],[0,0.5,0],[0,0.75,0],[1,0.25,0],[1,0.5,0],[1,0.75,0]];points=[[0,0,0],[0.25,0,0],[0.5,0,0],[0.75,0,0],[1,0,0],[0,1,0],[0.25,1,0],[0.5,1,0],[0.75,1,0],[1,1,0],[0,0.25,0],[0,0.5,0],[0,0.75,0],[1,0.25,0],[1,0.5,0],[1,0.75,0]];outlineConnect=0;fontColor=#232F3E;fillColor=#E7157B;strokeColor=#ffffff;dashed=0;verticalLabelPosition=bottom;verticalAlign=top;align=center;html=1;fontSize=12;fontStyle=0;aspect=fixed;shape=mxgraph.aws4.resourceIcon;resIcon=mxgraph.aws4.cloudwatch_2;fontFamily=Helvetica;labelBackgroundColor=none;" parent="1" vertex="1">
          <mxGeometry x="520" y="640" width="78" height="78" as="geometry" />
        </mxCell>
        <mxCell id="_A45xtu50W-eqhlQ53FJ-24" style="edgeStyle=orthogonalEdgeStyle;rounded=0;orthogonalLoop=1;jettySize=auto;html=1;strokeColor=#242424;align=center;verticalAlign=middle;fontFamily=Helvetica;fontSize=11;fontColor=#1C1C1C;labelBackgroundColor=none;endArrow=classic;" parent="1" source="_A45xtu50W-eqhlQ53FJ-23" target="_A45xtu50W-eqhlQ53FJ-22" edge="1">
          <mxGeometry relative="1" as="geometry" />
        </mxCell>
        <mxCell id="_A45xtu50W-eqhlQ53FJ-23" value="Route53" style="sketch=0;points=[[0,0,0],[0.25,0,0],[0.5,0,0],[0.75,0,0],[1,0,0],[0,1,0],[0.25,1,0],[0.5,1,0],[0.75,1,0],[1,1,0],[0,0.25,0],[0,0.5,0],[0,0.75,0],[1,0.25,0],[1,0.5,0],[1,0.75,0]];outlineConnect=0;fontColor=#232F3E;fillColor=#8C4FFF;strokeColor=#ffffff;dashed=0;verticalLabelPosition=bottom;verticalAlign=top;align=center;html=1;fontSize=12;fontStyle=0;aspect=fixed;shape=mxgraph.aws4.resourceIcon;resIcon=mxgraph.aws4.route_53;fontFamily=Helvetica;labelBackgroundColor=none;" parent="1" vertex="1">
          <mxGeometry x="360" y="640" width="78" height="78" as="geometry" />
        </mxCell>
        <mxCell id="_A45xtu50W-eqhlQ53FJ-25" value="Lambda&lt;br&gt;ECS start/stop" style="sketch=0;points=[[0,0,0],[0.25,0,0],[0.5,0,0],[0.75,0,0],[1,0,0],[0,1,0],[0.25,1,0],[0.5,1,0],[0.75,1,0],[1,1,0],[0,0.25,0],[0,0.5,0],[0,0.75,0],[1,0.25,0],[1,0.5,0],[1,0.75,0]];outlineConnect=0;fontColor=#232F3E;fillColor=#ED7100;strokeColor=#ffffff;dashed=0;verticalLabelPosition=bottom;verticalAlign=top;align=center;html=1;fontSize=12;fontStyle=0;aspect=fixed;shape=mxgraph.aws4.resourceIcon;resIcon=mxgraph.aws4.lambda;fontFamily=Helvetica;labelBackgroundColor=none;" parent="1" vertex="1">
          <mxGeometry x="680" y="640" width="78" height="78" as="geometry" />
        </mxCell>
        <mxCell id="_A45xtu50W-eqhlQ53FJ-76" style="edgeStyle=orthogonalEdgeStyle;rounded=0;orthogonalLoop=1;jettySize=auto;html=1;strokeColor=#242424;align=center;verticalAlign=middle;fontFamily=Helvetica;fontSize=11;fontColor=#1C1C1C;labelBackgroundColor=none;endArrow=classic;" parent="1" source="_A45xtu50W-eqhlQ53FJ-26" target="_A45xtu50W-eqhlQ53FJ-27" edge="1">
          <mxGeometry relative="1" as="geometry" />
        </mxCell>
        <mxCell id="_A45xtu50W-eqhlQ53FJ-26" value="ECS Service" style="sketch=0;points=[[0,0,0],[0.25,0,0],[0.5,0,0],[0.75,0,0],[1,0,0],[0,1,0],[0.25,1,0],[0.5,1,0],[0.75,1,0],[1,1,0],[0,0.25,0],[0,0.5,0],[0,0.75,0],[1,0.25,0],[1,0.5,0],[1,0.75,0]];outlineConnect=0;fontColor=#232F3E;fillColor=#ED7100;strokeColor=#ffffff;dashed=0;verticalLabelPosition=bottom;verticalAlign=top;align=center;html=1;fontSize=12;fontStyle=0;aspect=fixed;shape=mxgraph.aws4.resourceIcon;resIcon=mxgraph.aws4.ecs;fontFamily=Helvetica;labelBackgroundColor=none;" parent="1" vertex="1">
          <mxGeometry x="837" y="640" width="78" height="78" as="geometry" />
        </mxCell>
        <mxCell id="_A45xtu50W-eqhlQ53FJ-77" style="edgeStyle=orthogonalEdgeStyle;rounded=0;orthogonalLoop=1;jettySize=auto;html=1;entryX=0.5;entryY=0;entryDx=0;entryDy=0;strokeColor=#242424;align=center;verticalAlign=middle;fontFamily=Helvetica;fontSize=11;fontColor=#1C1C1C;labelBackgroundColor=none;endArrow=classic;exitX=1;exitY=0.5;exitDx=0;exitDy=0;exitPerimeter=0;" parent="1" source="_A45xtu50W-eqhlQ53FJ-27" target="_A45xtu50W-eqhlQ53FJ-47" edge="1">
          <mxGeometry relative="1" as="geometry" />
        </mxCell>
        <mxCell id="_A45xtu50W-eqhlQ53FJ-27" value="Fargate" style="sketch=0;points=[[0,0,0],[0.25,0,0],[0.5,0,0],[0.75,0,0],[1,0,0],[0,1,0],[0.25,1,0],[0.5,1,0],[0.75,1,0],[1,1,0],[0,0.25,0],[0,0.5,0],[0,0.75,0],[1,0.25,0],[1,0.5,0],[1,0.75,0]];outlineConnect=0;fontColor=#232F3E;fillColor=#ED7100;strokeColor=#ffffff;dashed=0;verticalLabelPosition=bottom;verticalAlign=top;align=center;html=1;fontSize=12;fontStyle=0;aspect=fixed;shape=mxgraph.aws4.resourceIcon;resIcon=mxgraph.aws4.fargate;fontFamily=Helvetica;labelBackgroundColor=none;" parent="1" vertex="1">
          <mxGeometry x="987.25" y="640" width="78" height="78" as="geometry" />
        </mxCell>
        <mxCell id="_A45xtu50W-eqhlQ53FJ-84" style="edgeStyle=orthogonalEdgeStyle;rounded=0;orthogonalLoop=1;jettySize=auto;html=1;strokeColor=#242424;align=center;verticalAlign=middle;fontFamily=Helvetica;fontSize=11;fontColor=#1C1C1C;labelBackgroundColor=none;endArrow=classic;" parent="1" source="_A45xtu50W-eqhlQ53FJ-28" target="_A45xtu50W-eqhlQ53FJ-29" edge="1">
          <mxGeometry relative="1" as="geometry" />
        </mxCell>
        <mxCell id="_A45xtu50W-eqhlQ53FJ-85" value="Status Check" style="edgeLabel;html=1;align=center;verticalAlign=middle;resizable=0;points=[];fontFamily=Helvetica;fontSize=11;fontColor=#6B6B6B;labelBackgroundColor=none;" parent="_A45xtu50W-eqhlQ53FJ-84" vertex="1" connectable="0">
          <mxGeometry x="0.0737" y="2" relative="1" as="geometry">
            <mxPoint x="-8" y="-8" as="offset" />
          </mxGeometry>
        </mxCell>
        <mxCell id="_A45xtu50W-eqhlQ53FJ-28" value="Watchdog&lt;br style=&quot;font-size: 12px;&quot;&gt;&lt;span style=&quot;font-size: 12px;&quot;&gt;Container&lt;/span&gt;" style="outlineConnect=0;dashed=0;verticalLabelPosition=bottom;verticalAlign=top;align=center;html=1;shape=mxgraph.aws3.ec2_compute_container;fillColor=#F58534;gradientColor=none;fontFamily=Helvetica;fontSize=11;fontColor=#1C1C1C;labelBackgroundColor=none;" parent="1" vertex="1">
          <mxGeometry x="846" y="821.75" width="60" height="34.5" as="geometry" />
        </mxCell>
        <mxCell id="_A45xtu50W-eqhlQ53FJ-29" value="Palworld&amp;nbsp;&lt;span style=&quot;font-size: 12px;&quot;&gt;Dedicated&lt;/span&gt;&lt;br style=&quot;padding: 0px; margin: 0px; font-size: 12px;&quot;&gt;&lt;span style=&quot;font-size: 12px;&quot;&gt;Server&amp;nbsp;Container&lt;br&gt;&lt;/span&gt;" style="outlineConnect=0;dashed=0;verticalLabelPosition=bottom;verticalAlign=top;align=center;html=1;shape=mxgraph.aws3.ec2_compute_container;fillColor=#F58534;gradientColor=none;fontFamily=Helvetica;fontSize=11;fontColor=#1C1C1C;labelBackgroundColor=none;" parent="1" vertex="1">
          <mxGeometry x="996.25" y="821.75" width="60" height="34.5" as="geometry" />
        </mxCell>
        <mxCell id="_A45xtu50W-eqhlQ53FJ-30" value="SNS&lt;br&gt;ECS Notification" style="sketch=0;points=[[0,0,0],[0.25,0,0],[0.5,0,0],[0.75,0,0],[1,0,0],[0,1,0],[0.25,1,0],[0.5,1,0],[0.75,1,0],[1,1,0],[0,0.25,0],[0,0.5,0],[0,0.75,0],[1,0.25,0],[1,0.5,0],[1,0.75,0]];outlineConnect=0;fontColor=#232F3E;fillColor=#E7157B;strokeColor=#ffffff;dashed=0;verticalLabelPosition=bottom;verticalAlign=top;align=center;html=1;fontSize=12;fontStyle=0;aspect=fixed;shape=mxgraph.aws4.resourceIcon;resIcon=mxgraph.aws4.sns;fontFamily=Helvetica;labelBackgroundColor=none;" parent="1" vertex="1">
          <mxGeometry x="520" y="800" width="78" height="78" as="geometry" />
        </mxCell>
        <mxCell id="_A45xtu50W-eqhlQ53FJ-95" style="edgeStyle=orthogonalEdgeStyle;rounded=0;orthogonalLoop=1;jettySize=auto;html=1;entryX=1;entryY=0.5;entryDx=0;entryDy=0;strokeColor=#242424;align=center;verticalAlign=middle;fontFamily=Helvetica;fontSize=11;fontColor=#1C1C1C;labelBackgroundColor=none;endArrow=classic;" parent="1" source="_A45xtu50W-eqhlQ53FJ-31" target="_A45xtu50W-eqhlQ53FJ-33" edge="1">
          <mxGeometry relative="1" as="geometry" />
        </mxCell>
        <mxCell id="_A45xtu50W-eqhlQ53FJ-99" value="Palworld/Billing Nortification" style="edgeLabel;html=1;align=center;verticalAlign=middle;resizable=0;points=[];fontFamily=Helvetica;fontSize=11;fontColor=#6B6B6B;labelBackgroundColor=none;" parent="_A45xtu50W-eqhlQ53FJ-95" vertex="1" connectable="0">
          <mxGeometry x="0.2044" relative="1" as="geometry">
            <mxPoint y="8" as="offset" />
          </mxGeometry>
        </mxCell>
        <mxCell id="_A45xtu50W-eqhlQ53FJ-31" value="AWS Chatbot" style="sketch=0;points=[[0,0,0],[0.25,0,0],[0.5,0,0],[0.75,0,0],[1,0,0],[0,1,0],[0.25,1,0],[0.5,1,0],[0.75,1,0],[1,1,0],[0,0.25,0],[0,0.5,0],[0,0.75,0],[1,0.25,0],[1,0.5,0],[1,0.75,0]];points=[[0,0,0],[0.25,0,0],[0.5,0,0],[0.75,0,0],[1,0,0],[0,1,0],[0.25,1,0],[0.5,1,0],[0.75,1,0],[1,1,0],[0,0.25,0],[0,0.5,0],[0,0.75,0],[1,0.25,0],[1,0.5,0],[1,0.75,0]];outlineConnect=0;fontColor=#232F3E;fillColor=#E7157B;strokeColor=#ffffff;dashed=0;verticalLabelPosition=bottom;verticalAlign=top;align=center;html=1;fontSize=12;fontStyle=0;aspect=fixed;shape=mxgraph.aws4.resourceIcon;resIcon=mxgraph.aws4.chatbot;fontFamily=Helvetica;labelBackgroundColor=none;" parent="1" vertex="1">
          <mxGeometry x="360" y="800" width="78" height="78" as="geometry" />
        </mxCell>
        <mxCell id="_A45xtu50W-eqhlQ53FJ-98" style="edgeStyle=orthogonalEdgeStyle;rounded=0;orthogonalLoop=1;jettySize=auto;html=1;exitX=0.25;exitY=0;exitDx=0;exitDy=0;entryX=0.25;entryY=1;entryDx=0;entryDy=0;strokeColor=#242424;align=center;verticalAlign=middle;fontFamily=Helvetica;fontSize=11;fontColor=#1C1C1C;labelBackgroundColor=none;endArrow=classic;" parent="1" source="_A45xtu50W-eqhlQ53FJ-33" target="_A45xtu50W-eqhlQ53FJ-39" edge="1">
          <mxGeometry relative="1" as="geometry" />
        </mxCell>
        <mxCell id="_A45xtu50W-eqhlQ53FJ-33" value="Slack" style="shape=image;verticalLabelPosition=bottom;labelBackgroundColor=none;verticalAlign=top;aspect=fixed;imageAspect=0;image=data:image/png,iVBORw0KGgoAAAANSUhEUgAAAOEAAADhCAMAAAAJbSJIAAAA51BMVEX///8utn3ssi7gHlo2xfDfDVTeAEkgwu8TsnTrsCP99ffrrAf++/Ww3sjT7eDV8Pux5PjyzIbqgZoAsHBXzPL75uv89eiJ2fX23bDeAEfeAEwSwO/fAFDfEVXssCb42uH0+/71+/jH7Pro9/3wqbn67NSg3/fk9Ox3yqN91fS45/m54s6d17vz0ZH99vjhL2Puu1Hxrr3zusf66tDvwGI+uoWEzqvG59e14Mtrxp1XwJHunrD447712KTlV3znaIjkTHTxyHnpdJDtkqf2zdaT1LVNvozttjz31d3005bvvVjtlarwxW94YbntAAALG0lEQVR4nO2cd1/iTBDHQ0+MHRSBUAQeFRuK7ez19Dzv/b+eJwktZbOZIVsIn/z+Zt18ndk+M4qSCKPOYblXymazpd5eu4Vrunp8fXeVSl3dXa+scvk2BuqUs4VCITtUoVArHYKb3twWVTU1kqqq1/MIuVaqjemyE8o9UNOV1IRuQnl1xPl7sWqValmCCoX10KY3fr4h476A7wbrkMhnM5Za9KYHRRKfpeJvId8OUs/rny7GNUrLXbIBR2a8E0YQohINMJuttQNb7lP4bO0KxAhWCCAFMRRwPhCpLjpCJDvqbjhg6lMwDUHr4YCmiE0/wwFT6oFgHp86gbOoU4UeoekxwITmjHojnMmtEgSQOBT3A5cJjxUlUDnUBvko0U9vYYApVe6yCOXLFrybVKgJJRsRbkKfEQ+ggCn1WArbUD04oGfF2AWb0JQkOkugiXTkpu5zxhFoIh2qKG8PjnFSj5vCnVSqm+5hCGstZ1MEYCp1K4kPvBiO3NQ5EFHDUOJAxABmXYfhVcQwNAeitP03YqLxTDU3KEJV1lTTwhGWHU1/4QhlXUxFIFxJCOeDEDkO40iIAYwnIWJbGlNC1J4mloRrC0+oLD4hZiDGkxDjpvEkxJwuYkrYhi/6MSVEGDGuhPC9aVwJKY+ji0KolIHzaXwJIc9rMScEIsaZUNmDjMVYEyrtQrgZ401ozjehZow7odLp+WKiFozQXPzXS7VCsLsuAKGpVnuv3CsFyHkjHFtCsBLChHD+lRAmhPOvhDAhnH8lhPwJO2uR1BFMuLu/uroKDmforPey1hkhkmrZ3mFLDOHq8Z1aVC0VU7cr4ZiH/tSXGVWolYKD9FkR7h6nVOefUoufv6h861lGeCPIbFDqEyPC30X/31HVlUC+NbZ8NmOJPCSZEB6p5L8SmFAEujFDq0bMfGJBeBv8N4rEaEbgxS4esUzoLDrh7hXtT6iEcMbQzJeZRUpFiEy4G9bElzPFD5CIGJUwDNCPCH1emRHRl2kZlfAK0Oja2QDxlDuTfIlPEQmvIc2LjjTUFlcL2mJKuAqLMFangbe8ptGpvH4ajRDabpIVBsvOiiZ3HHs0QnDjSRoDKgBvRhXK7AjhDUdGxAXCzozIjBARIz4KgYflSEYmbLMihCa9WQ2Hm3BU1sTs6rEixKRqDJd9IU7qcdMIhKhUjaLVAhUkGoWww4YQllzrbClmGHoGYgRCxDAcDUS+W1IH4TobQkgG+LSllWIrYjW0CRm9AWMaDldEYYSM3vFxWW+3CSEvQkySrCd3DUd4IHKmYZSdhyK0j8FSVgtAVROHisrMhNZqgUtXjkDYmfk7r2YntKpqiDlaeA8XqFXtembC4eFCxs5b+Y1wU/VoZsKh9VH5WTPLUxgDs392JzpjCEeZ/CIuMXzXGJitifv+GkM4vsYQ4aa+W2H4mu+5w8AfD83zk4ibKN8bFJjQUyoKQTj93/A3YoSL/aLnKhFBOL3Y5z8SC55RaAlwM2/J+4oEJ3TWROE9ndZIb8GwKkOqt2IEvDaR6xGR59NTQKkv2H2E10cRhJ7HJ66AJSKgohyEIhb9b/JQwitPu5YEQOpDtS1SnS8ooa8eSouXo1IAw6xIfI6Hjd4rUsEXPi9QxGf8qVYoH6wSy+1BCEnP+JYOAbk9SBUKwVFDQ+0HRRyod+S6O+GEqhoYNdQqswqIGvGFGHCoFVJYjJoKKiQcRqgWr2kliTplStYLEq9Q2GsBABW7VLLq/sjP4ELJdEJVvQ4NbWuXowfuWaF7ZVp1Xa9Wjz+H0XdWAN7dMe0jJ7/zq5i6BlbKbK21D9cj6LCNoRtr/+Zo5ddRaBDlSoB+3azOQ8HaRIkSJUqUKFGiROzUHNy/b5L1tkRtufXRtVreD/6gO91+eDzZiKLvnYtlSEdL3adK1TByAapsBTf92MzkDbupYVQrL/eUn3q0vHOp67oWVbr+dfJfSFfN54pRz1BUDfzs+3o15/xl3ag8wSy5/aprjTQbafrXA6WrrecKFY9C2DUM/4/r+adwOy6bfIzwbDX0dCBjN5QviHCrXyX/vF75CQF8YMtnS78k9/UU8JXhhAPKv8Z4OaUBvurM+UxpGmE4nvZzgV8ZQnhfobWoZyjT7xl7Aw6l+zx1KRPuoQGEP3l6k3ouEPGLFyABsQ8DJBB2qRa0ETMBjvqXH6CJ6HbUJ5CLkgj/hAKaiC9EwA2egCaic/3vQiYZMiHoX2OQZtQHLpPMVI2zaV9LISOJQvgGMz5pK8TXgqb0nUlfz1Af9RE2AT5qqf7kAzzhTpjWx31tAT+TQPgEnKAyee8Gbpmzj1rSvnGeRiCE/298Rvzmb8KJEU8RJvQQbsL/N96RKAIwrQ1H4jlhzwwkRBjfuHcBXghwUnM6/Wt39gwdSz7CP+BFxrcmcl4LxxquiYjP9BDeY6xfcRF+sToQhhBeWLMFfDH0EuKs33S0FDGTWtIezc4+MIZwE/YxLY2Bo+V/gggbr9iJxk2Isr5rquG9Y5sQnmEHk4sQtcxkcptOQjETTTr9ZXb2MzMhYjvrJdwRRZhGE+ZjSIjz0vwSE0Jh49Dy0gGK0LmqRSAUs6UxCa1bN8zGJJPpsyHcFrUenmBnxPobG0JFFKG99cas28Y5I8J/gnZt21Zn74gTgusMFIVQ1GRqd9ZEfKhzGEYiFLMxtYchyk2NLitC5VKEmw6dFLMzrSrMCEWsF6MDsCnoR3quPSMRKmf8jTi99h4Al8ScwpCQ/wGq4Xhkg10K5gcsCZVX3tOp81p/CWJE49nziREJlTRfP3VceZv6CN/Y1PveL4xKyHfrpr26ezsPQ6zXfa+AUQm5zqfaX29vIc+A9br/bSUyIcdDlB/QeoynfJ7RJ7zjRic0rchnLOr/CJ0pzUzgyl95IzVgQKhs83jobuiPpL5MbZJjKoz6gPhzFoSK8s063KShn20HANohQ96DRt3wvDiwJmQcMtSgB0WZjO/1/CTuq54zKi/ngb9lRGgyPn7pGoPAr4am6/8uqHy2mt23fr6Sz1dyL5sDWigiM0JT2zuvZ3pEpS+/AXhjnS5RQ5mYEw61HEVwOLDYE86bEsKEcP6VECaE86+EMCGcf0UgXN4OEI+91+yK8spN2T//eww+3gkWp3d88wyU/p4PW3KMVND0jXlg5BqLoQXetQgU52gT/Uy6GXnH0zQ02VMO/4ghPSybkLMExERJRhQR9aVLHYsiCJ2JL+IlJHJP/w7sn7/ExCbqEidUMYQa8RlJjATFl0o0oiDCcWDT4hKmtYUn1BHvLfEk1KQtGKIIG4Sog8UinOaCLi6hrM2pOEJZK6I4QllnqMUnRGZ2vTua4jK75J2DZ8/Ow8XsyduZzp5hiQu8lLZaRMiSxeXMfMkCVLpiMp29sbAC1cRkq7uLKmCqYmj0QDWuQnipOxkFNdXIvG9DpExVPBFycC9tBFTuEiJE5Q9voP8j/LZNopMiZtNK09MSnNrVkDeTWoIa0WdCePkWuSZUlE3YgkGqogQ0obTj71ggwGqX0BI2ncq8EB4KUikq568SZekEgCjbRy1R8zRs+fOJRroMHYq6vLtSh8KK7gWW3AsvuqfL26+5RM+ZyvUpEeOXVEfVN8RB0PVRDV4Wq+QxOBZlLDbc6XVytRRU+zSXJ82iTl1oAZ6qf0mfRV0akJKmcpVneuloWyeklJm5CKfx6LyfzzmdtW5U3mDVoJdPdDekpjfmj89S871vFcq2la8+n4fnpEz08KqNq13renpD2lNMuE7/DO5/fu7PP+C1vMfavth5/P5+fPhPeiRU3PQ/jYbJYIK594wAAAAASUVORK5CYII=;fontColor=#1C1C1C;" parent="1" vertex="1">
          <mxGeometry x="21" y="800" width="79" height="79" as="geometry" />
        </mxCell>
        <mxCell id="_A45xtu50W-eqhlQ53FJ-35" value="SNS&lt;br&gt;Billing Notification" style="sketch=0;points=[[0,0,0],[0.25,0,0],[0.5,0,0],[0.75,0,0],[1,0,0],[0,1,0],[0.25,1,0],[0.5,1,0],[0.75,1,0],[1,1,0],[0,0.25,0],[0,0.5,0],[0,0.75,0],[1,0.25,0],[1,0.5,0],[1,0.75,0]];outlineConnect=0;fontColor=#232F3E;fillColor=#E7157B;strokeColor=#ffffff;dashed=0;verticalLabelPosition=bottom;verticalAlign=top;align=center;html=1;fontSize=12;fontStyle=0;aspect=fixed;shape=mxgraph.aws4.resourceIcon;resIcon=mxgraph.aws4.sns;fontFamily=Helvetica;labelBackgroundColor=none;" parent="1" vertex="1">
          <mxGeometry x="520" y="940" width="78" height="78" as="geometry" />
        </mxCell>
        <mxCell id="_A45xtu50W-eqhlQ53FJ-36" value="EFS Shared&lt;br style=&quot;color: rgb(28, 28, 28);&quot;&gt;&lt;span style=&quot;color: rgb(28, 28, 28);&quot;&gt;Persistent Game Data&lt;/span&gt;" style="sketch=0;points=[[0,0,0],[0.25,0,0],[0.5,0,0],[0.75,0,0],[1,0,0],[0,1,0],[0.25,1,0],[0.5,1,0],[0.75,1,0],[1,1,0],[0,0.25,0],[0,0.5,0],[0,0.75,0],[1,0.25,0],[1,0.5,0],[1,0.75,0]];outlineConnect=0;fontColor=#232F3E;fillColor=#7AA116;strokeColor=#ffffff;dashed=0;verticalLabelPosition=bottom;verticalAlign=top;align=center;html=1;fontSize=12;fontStyle=0;aspect=fixed;shape=mxgraph.aws4.resourceIcon;resIcon=mxgraph.aws4.elastic_file_system;fontFamily=Helvetica;labelBackgroundColor=none;" parent="1" vertex="1">
          <mxGeometry x="987.25" y="1097" width="78" height="78" as="geometry" />
        </mxCell>
        <mxCell id="_A45xtu50W-eqhlQ53FJ-37" value="DataSync" style="sketch=0;points=[[0,0,0],[0.25,0,0],[0.5,0,0],[0.75,0,0],[1,0,0],[0,1,0],[0.25,1,0],[0.5,1,0],[0.75,1,0],[1,1,0],[0,0.25,0],[0,0.5,0],[0,0.75,0],[1,0.25,0],[1,0.5,0],[1,0.75,0]];outlineConnect=0;fontColor=#232F3E;fillColor=#01A88D;strokeColor=#ffffff;dashed=0;verticalLabelPosition=bottom;verticalAlign=top;align=center;html=1;fontSize=12;fontStyle=0;aspect=fixed;shape=mxgraph.aws4.resourceIcon;resIcon=mxgraph.aws4.datasync;fontFamily=Helvetica;labelBackgroundColor=none;" parent="1" vertex="1">
          <mxGeometry x="837" y="1097" width="78" height="78" as="geometry" />
        </mxCell>
        <mxCell id="_A45xtu50W-eqhlQ53FJ-91" style="edgeStyle=orthogonalEdgeStyle;rounded=0;orthogonalLoop=1;jettySize=auto;html=1;exitX=1;exitY=0.25;exitDx=0;exitDy=0;exitPerimeter=0;strokeColor=#242424;align=center;verticalAlign=middle;fontFamily=Helvetica;fontSize=11;fontColor=#1C1C1C;labelBackgroundColor=none;endArrow=classic;" parent="1" source="_A45xtu50W-eqhlQ53FJ-38" edge="1">
          <mxGeometry relative="1" as="geometry">
            <mxPoint x="834.7857142857144" y="1116.5" as="targetPoint" />
          </mxGeometry>
        </mxCell>
        <mxCell id="_A45xtu50W-eqhlQ53FJ-38" value="S3 Bucket&lt;br style=&quot;color: rgb(28, 28, 28);&quot;&gt;&lt;span style=&quot;color: rgb(28, 28, 28);&quot;&gt;Easy User Config&lt;/span&gt;&lt;br style=&quot;color: rgb(28, 28, 28);&quot;&gt;&lt;span style=&quot;color: rgb(28, 28, 28);&quot;&gt;File Editing&lt;/span&gt;" style="sketch=0;points=[[0,0,0],[0.25,0,0],[0.5,0,0],[0.75,0,0],[1,0,0],[0,1,0],[0.25,1,0],[0.5,1,0],[0.75,1,0],[1,1,0],[0,0.25,0],[0,0.5,0],[0,0.75,0],[1,0.25,0],[1,0.5,0],[1,0.75,0]];outlineConnect=0;fontColor=#232F3E;fillColor=#7AA116;strokeColor=#ffffff;dashed=0;verticalLabelPosition=bottom;verticalAlign=top;align=center;html=1;fontSize=12;fontStyle=0;aspect=fixed;shape=mxgraph.aws4.resourceIcon;resIcon=mxgraph.aws4.s3;fontFamily=Helvetica;labelBackgroundColor=none;" parent="1" vertex="1">
          <mxGeometry x="680" y="1097" width="78" height="78" as="geometry" />
        </mxCell>
        <mxCell id="_A45xtu50W-eqhlQ53FJ-66" style="edgeStyle=orthogonalEdgeStyle;rounded=0;orthogonalLoop=1;jettySize=auto;html=1;exitX=0.75;exitY=1;exitDx=0;exitDy=0;entryX=0.75;entryY=0;entryDx=0;entryDy=0;strokeColor=#242424;align=center;verticalAlign=middle;fontFamily=Helvetica;fontSize=11;fontColor=#1C1C1C;labelBackgroundColor=none;endArrow=classic;" parent="1" source="_A45xtu50W-eqhlQ53FJ-39" target="_A45xtu50W-eqhlQ53FJ-33" edge="1">
          <mxGeometry relative="1" as="geometry" />
        </mxCell>
        <mxCell id="_A45xtu50W-eqhlQ53FJ-39" value="Player" style="shape=image;verticalLabelPosition=bottom;labelBackgroundColor=none;verticalAlign=top;aspect=fixed;imageAspect=0;image=https://encrypted-tbn0.gstatic.com/images?q=tbn:ANd9GcSRtwzbP1Z5skykdci3wBSeZBY3yJnpSbuIf4y5shx7Yk-KxfMHUkU9jLq6IWlkUbIEKAA&amp;usqp=CAU;clipPath=inset(39.88% 4.67% 0.6% 62%);fontColor=#1C1C1C;" parent="1" vertex="1">
          <mxGeometry x="20" y="638" width="80" height="80" as="geometry" />
        </mxCell>
        <mxCell id="_A45xtu50W-eqhlQ53FJ-61" style="edgeStyle=orthogonalEdgeStyle;rounded=0;orthogonalLoop=1;jettySize=auto;html=1;strokeColor=#242424;align=center;verticalAlign=middle;fontFamily=Helvetica;fontSize=11;fontColor=#1C1C1C;labelBackgroundColor=none;endArrow=classic;" parent="1" source="_A45xtu50W-eqhlQ53FJ-41" target="_A45xtu50W-eqhlQ53FJ-23" edge="1">
          <mxGeometry relative="1" as="geometry" />
        </mxCell>
        <mxCell id="_A45xtu50W-eqhlQ53FJ-41" value="Public DNS" style="fillColor=#28A8E0;verticalLabelPosition=bottom;sketch=0;html=1;strokeColor=#ffffff;verticalAlign=top;align=center;points=[[0.145,0.145,0],[0.5,0,0],[0.855,0.145,0],[1,0.5,0],[0.855,0.855,0],[0.5,1,0],[0.145,0.855,0],[0,0.5,0]];pointerEvents=1;shape=mxgraph.cisco_safe.compositeIcon;bgIcon=ellipse;resIcon=mxgraph.cisco_safe.capability.dns;fontFamily=Helvetica;fontSize=11;fontColor=#1C1C1C;labelBackgroundColor=none;" parent="1" vertex="1">
          <mxGeometry x="150" y="638" width="80" height="80" as="geometry" />
        </mxCell>
        <mxCell id="_A45xtu50W-eqhlQ53FJ-51" style="edgeStyle=orthogonalEdgeStyle;rounded=0;orthogonalLoop=1;jettySize=auto;html=1;entryX=0;entryY=0.5;entryDx=0;entryDy=0;entryPerimeter=0;strokeColor=#242424;align=center;verticalAlign=middle;fontFamily=Helvetica;fontSize=11;fontColor=#1C1C1C;labelBackgroundColor=none;endArrow=classic;" parent="1" source="_A45xtu50W-eqhlQ53FJ-25" target="_A45xtu50W-eqhlQ53FJ-26" edge="1">
          <mxGeometry relative="1" as="geometry" />
        </mxCell>
        <mxCell id="_A45xtu50W-eqhlQ53FJ-52" value="Start/Stop" style="edgeLabel;html=1;align=center;verticalAlign=middle;resizable=0;points=[];fontFamily=Helvetica;fontSize=11;fontColor=#6B6B6B;labelBackgroundColor=none;" parent="_A45xtu50W-eqhlQ53FJ-51" vertex="1" connectable="0">
          <mxGeometry x="-0.0779" y="2" relative="1" as="geometry">
            <mxPoint y="-7" as="offset" />
          </mxGeometry>
        </mxCell>
        <mxCell id="_A45xtu50W-eqhlQ53FJ-56" style="edgeStyle=orthogonalEdgeStyle;rounded=0;orthogonalLoop=1;jettySize=auto;html=1;entryX=1;entryY=0.5;entryDx=0;entryDy=0;entryPerimeter=0;strokeColor=#242424;align=center;verticalAlign=middle;fontFamily=Helvetica;fontSize=11;fontColor=#1C1C1C;labelBackgroundColor=none;endArrow=classic;" parent="1" source="_A45xtu50W-eqhlQ53FJ-30" target="_A45xtu50W-eqhlQ53FJ-31" edge="1">
          <mxGeometry relative="1" as="geometry" />
        </mxCell>
        <mxCell id="_A45xtu50W-eqhlQ53FJ-57" style="edgeStyle=orthogonalEdgeStyle;rounded=0;orthogonalLoop=1;jettySize=auto;html=1;entryX=1;entryY=0.75;entryDx=0;entryDy=0;entryPerimeter=0;strokeColor=#242424;align=center;verticalAlign=middle;fontFamily=Helvetica;fontSize=11;fontColor=#1C1C1C;labelBackgroundColor=none;endArrow=classic;" parent="1" source="_A45xtu50W-eqhlQ53FJ-35" target="_A45xtu50W-eqhlQ53FJ-31" edge="1">
          <mxGeometry relative="1" as="geometry" />
        </mxCell>
        <mxCell id="_A45xtu50W-eqhlQ53FJ-60" style="edgeStyle=orthogonalEdgeStyle;rounded=0;orthogonalLoop=1;jettySize=auto;html=1;entryX=0;entryY=0.5;entryDx=0;entryDy=0;entryPerimeter=0;strokeColor=#242424;align=center;verticalAlign=middle;fontFamily=Helvetica;fontSize=11;fontColor=#1C1C1C;labelBackgroundColor=none;endArrow=classic;" parent="1" source="_A45xtu50W-eqhlQ53FJ-39" target="_A45xtu50W-eqhlQ53FJ-41" edge="1">
          <mxGeometry relative="1" as="geometry" />
        </mxCell>
        <mxCell id="_A45xtu50W-eqhlQ53FJ-64" style="edgeStyle=orthogonalEdgeStyle;rounded=0;orthogonalLoop=1;jettySize=auto;html=1;exitX=0.5;exitY=0;exitDx=0;exitDy=0;exitPerimeter=0;entryX=0;entryY=0.75;entryDx=0;entryDy=0;entryPerimeter=0;strokeColor=#242424;align=center;verticalAlign=middle;fontFamily=Helvetica;fontSize=11;fontColor=#1C1C1C;labelBackgroundColor=none;endArrow=classic;" parent="1" source="_A45xtu50W-eqhlQ53FJ-31" target="_A45xtu50W-eqhlQ53FJ-25" edge="1">
          <mxGeometry relative="1" as="geometry">
            <Array as="points">
              <mxPoint x="399" y="780" />
              <mxPoint x="630" y="780" />
              <mxPoint x="630" y="699" />
            </Array>
          </mxGeometry>
        </mxCell>
        <mxCell id="_A45xtu50W-eqhlQ53FJ-65" value="Invoke" style="edgeLabel;html=1;align=center;verticalAlign=middle;resizable=0;points=[];fontFamily=Helvetica;fontSize=11;fontColor=#6B6B6B;labelBackgroundColor=none;" parent="_A45xtu50W-eqhlQ53FJ-64" vertex="1" connectable="0">
          <mxGeometry x="0.0047" y="1" relative="1" as="geometry">
            <mxPoint y="-6" as="offset" />
          </mxGeometry>
        </mxCell>
        <mxCell id="_A45xtu50W-eqhlQ53FJ-67" style="edgeStyle=orthogonalEdgeStyle;rounded=0;orthogonalLoop=1;jettySize=auto;html=1;exitX=1;exitY=0.25;exitDx=0;exitDy=0;entryX=0;entryY=0.25;entryDx=0;entryDy=0;entryPerimeter=0;strokeColor=#242424;align=center;verticalAlign=middle;fontFamily=Helvetica;fontSize=11;fontColor=#1C1C1C;labelBackgroundColor=none;endArrow=classic;" parent="1" source="_A45xtu50W-eqhlQ53FJ-33" target="_A45xtu50W-eqhlQ53FJ-31" edge="1">
          <mxGeometry relative="1" as="geometry" />
        </mxCell>
        <mxCell id="_A45xtu50W-eqhlQ53FJ-100" value="Palworld Start" style="edgeLabel;html=1;align=center;verticalAlign=middle;resizable=0;points=[];fontFamily=Helvetica;fontSize=11;fontColor=#6B6B6B;labelBackgroundColor=none;" parent="_A45xtu50W-eqhlQ53FJ-67" vertex="1" connectable="0">
          <mxGeometry x="-0.2865" y="1" relative="1" as="geometry">
            <mxPoint x="-3" y="-8" as="offset" />
          </mxGeometry>
        </mxCell>
        <mxCell id="_A45xtu50W-eqhlQ53FJ-68" value="EventBridge Rule&lt;br&gt;(Default Every 6 hours)" style="sketch=0;outlineConnect=0;fontColor=#232F3E;gradientColor=none;fillColor=#E7157B;strokeColor=none;dashed=0;verticalLabelPosition=bottom;verticalAlign=top;align=center;html=1;fontSize=12;fontStyle=0;aspect=fixed;pointerEvents=1;shape=mxgraph.aws4.rule_3;fontFamily=Helvetica;labelBackgroundColor=none;" parent="1" vertex="1">
          <mxGeometry x="840" y="945" width="78" height="68" as="geometry" />
        </mxCell>
        <mxCell id="_A45xtu50W-eqhlQ53FJ-72" style="edgeStyle=orthogonalEdgeStyle;rounded=0;orthogonalLoop=1;jettySize=auto;html=1;strokeColor=#242424;align=center;verticalAlign=middle;fontFamily=Helvetica;fontSize=11;fontColor=#1C1C1C;labelBackgroundColor=none;endArrow=classic;entryX=0.5;entryY=0;entryDx=0;entryDy=0;entryPerimeter=0;" parent="1" source="_A45xtu50W-eqhlQ53FJ-69" target="zdkOnZrTmFXVlxLLtSqA-3" edge="1">
          <mxGeometry relative="1" as="geometry">
            <mxPoint x="719" y="1080" as="targetPoint" />
            <Array as="points">
              <mxPoint x="719" y="1071" />
              <mxPoint x="559" y="1071" />
            </Array>
          </mxGeometry>
        </mxCell>
        <mxCell id="_A45xtu50W-eqhlQ53FJ-69" value="Lambda&lt;br&gt;Check Billing Metric" style="sketch=0;points=[[0,0,0],[0.25,0,0],[0.5,0,0],[0.75,0,0],[1,0,0],[0,1,0],[0.25,1,0],[0.5,1,0],[0.75,1,0],[1,1,0],[0,0.25,0],[0,0.5,0],[0,0.75,0],[1,0.25,0],[1,0.5,0],[1,0.75,0]];outlineConnect=0;fontColor=#232F3E;fillColor=#ED7100;strokeColor=#ffffff;dashed=0;verticalLabelPosition=bottom;verticalAlign=top;align=center;html=1;fontSize=12;fontStyle=0;aspect=fixed;shape=mxgraph.aws4.resourceIcon;resIcon=mxgraph.aws4.lambda;fontFamily=Helvetica;labelBackgroundColor=none;" parent="1" vertex="1">
          <mxGeometry x="680" y="940" width="78" height="78" as="geometry" />
        </mxCell>
        <mxCell id="_A45xtu50W-eqhlQ53FJ-70" style="edgeStyle=orthogonalEdgeStyle;rounded=0;orthogonalLoop=1;jettySize=auto;html=1;entryX=1;entryY=0.5;entryDx=0;entryDy=0;entryPerimeter=0;strokeColor=#242424;align=center;verticalAlign=middle;fontFamily=Helvetica;fontSize=11;fontColor=#1C1C1C;labelBackgroundColor=none;endArrow=classic;" parent="1" source="_A45xtu50W-eqhlQ53FJ-68" target="_A45xtu50W-eqhlQ53FJ-69" edge="1">
          <mxGeometry relative="1" as="geometry" />
        </mxCell>
        <mxCell id="_A45xtu50W-eqhlQ53FJ-71" style="edgeStyle=orthogonalEdgeStyle;rounded=0;orthogonalLoop=1;jettySize=auto;html=1;entryX=1;entryY=0.5;entryDx=0;entryDy=0;entryPerimeter=0;strokeColor=#242424;align=center;verticalAlign=middle;fontFamily=Helvetica;fontSize=11;fontColor=#1C1C1C;labelBackgroundColor=none;endArrow=classic;" parent="1" source="_A45xtu50W-eqhlQ53FJ-69" target="_A45xtu50W-eqhlQ53FJ-35" edge="1">
          <mxGeometry relative="1" as="geometry" />
        </mxCell>
        <mxCell id="_A45xtu50W-eqhlQ53FJ-73" value="Fargate Task" style="rounded=1;whiteSpace=wrap;html=1;fontFamily=Helvetica;fontSize=11;fontColor=#FFFFFF;labelBackgroundColor=none;fillColor=#6B6B6B;arcSize=49;" parent="1" vertex="1">
          <mxGeometry x="813" y="784" width="80" height="20" as="geometry" />
        </mxCell>
        <mxCell id="_A45xtu50W-eqhlQ53FJ-78" style="edgeStyle=orthogonalEdgeStyle;rounded=0;orthogonalLoop=1;jettySize=auto;html=1;strokeColor=#242424;align=center;verticalAlign=middle;fontFamily=Helvetica;fontSize=11;fontColor=#1C1C1C;labelBackgroundColor=none;endArrow=classic;entryX=1.01;entryY=0.624;entryDx=0;entryDy=0;entryPerimeter=0;" parent="1" target="_A45xtu50W-eqhlQ53FJ-30" edge="1">
          <mxGeometry relative="1" as="geometry">
            <mxPoint x="846" y="848.63" as="sourcePoint" />
            <mxPoint x="598" y="839.63" as="targetPoint" />
            <Array as="points" />
          </mxGeometry>
        </mxCell>
        <mxCell id="_A45xtu50W-eqhlQ53FJ-86" style="edgeStyle=orthogonalEdgeStyle;rounded=0;orthogonalLoop=1;jettySize=auto;html=1;entryX=0;entryY=0.75;entryDx=0;entryDy=0;entryPerimeter=0;strokeColor=#242424;align=center;verticalAlign=middle;fontFamily=Helvetica;fontSize=11;fontColor=#1C1C1C;labelBackgroundColor=none;endArrow=classic;" parent="1" source="_A45xtu50W-eqhlQ53FJ-28" target="_A45xtu50W-eqhlQ53FJ-26" edge="1">
          <mxGeometry relative="1" as="geometry">
            <Array as="points">
              <mxPoint x="785" y="832" />
              <mxPoint x="785" y="699" />
            </Array>
          </mxGeometry>
        </mxCell>
        <mxCell id="_A45xtu50W-eqhlQ53FJ-87" value="Stop" style="edgeLabel;html=1;align=center;verticalAlign=middle;resizable=0;points=[];fontFamily=Helvetica;fontSize=11;fontColor=#6B6B6B;labelBackgroundColor=none;" parent="_A45xtu50W-eqhlQ53FJ-86" vertex="1" connectable="0">
          <mxGeometry x="0.7356" y="1" relative="1" as="geometry">
            <mxPoint y="8" as="offset" />
          </mxGeometry>
        </mxCell>
        <mxCell id="_A45xtu50W-eqhlQ53FJ-89" style="edgeStyle=orthogonalEdgeStyle;rounded=0;orthogonalLoop=1;jettySize=auto;html=1;entryX=0.5;entryY=0;entryDx=0;entryDy=0;entryPerimeter=0;strokeColor=#242424;align=center;verticalAlign=middle;fontFamily=Helvetica;fontSize=11;fontColor=#1C1C1C;labelBackgroundColor=none;endArrow=classic;" parent="1" source="_A45xtu50W-eqhlQ53FJ-29" target="_A45xtu50W-eqhlQ53FJ-36" edge="1">
          <mxGeometry relative="1" as="geometry" />
        </mxCell>
        <mxCell id="_A45xtu50W-eqhlQ53FJ-102" value="mount" style="edgeLabel;html=1;align=center;verticalAlign=middle;resizable=0;points=[];fontFamily=Helvetica;fontSize=11;fontColor=#6B6B6B;labelBackgroundColor=none;" parent="_A45xtu50W-eqhlQ53FJ-89" vertex="1" connectable="0">
          <mxGeometry x="-0.0115" y="2" relative="1" as="geometry">
            <mxPoint x="-23" y="38" as="offset" />
          </mxGeometry>
        </mxCell>
        <mxCell id="_A45xtu50W-eqhlQ53FJ-90" style="edgeStyle=orthogonalEdgeStyle;rounded=0;orthogonalLoop=1;jettySize=auto;html=1;exitX=1;exitY=0.25;exitDx=0;exitDy=0;exitPerimeter=0;entryX=0;entryY=0.25;entryDx=0;entryDy=0;entryPerimeter=0;strokeColor=#242424;align=center;verticalAlign=middle;fontFamily=Helvetica;fontSize=11;fontColor=#1C1C1C;labelBackgroundColor=none;endArrow=classic;" parent="1" source="_A45xtu50W-eqhlQ53FJ-37" target="_A45xtu50W-eqhlQ53FJ-36" edge="1">
          <mxGeometry relative="1" as="geometry" />
        </mxCell>
        <mxCell id="_A45xtu50W-eqhlQ53FJ-92" style="edgeStyle=orthogonalEdgeStyle;rounded=0;orthogonalLoop=1;jettySize=auto;html=1;exitX=0;exitY=0.75;exitDx=0;exitDy=0;exitPerimeter=0;entryX=1;entryY=0.75;entryDx=0;entryDy=0;entryPerimeter=0;strokeColor=#242424;align=center;verticalAlign=middle;fontFamily=Helvetica;fontSize=11;fontColor=#1C1C1C;labelBackgroundColor=none;endArrow=classic;" parent="1" source="_A45xtu50W-eqhlQ53FJ-36" target="_A45xtu50W-eqhlQ53FJ-37" edge="1">
          <mxGeometry relative="1" as="geometry" />
        </mxCell>
        <mxCell id="_A45xtu50W-eqhlQ53FJ-93" style="edgeStyle=orthogonalEdgeStyle;rounded=0;orthogonalLoop=1;jettySize=auto;html=1;exitX=0;exitY=0.75;exitDx=0;exitDy=0;exitPerimeter=0;entryX=1;entryY=0.75;entryDx=0;entryDy=0;entryPerimeter=0;strokeColor=#242424;align=center;verticalAlign=middle;fontFamily=Helvetica;fontSize=11;fontColor=#1C1C1C;labelBackgroundColor=none;endArrow=classic;" parent="1" source="_A45xtu50W-eqhlQ53FJ-37" target="_A45xtu50W-eqhlQ53FJ-38" edge="1">
          <mxGeometry relative="1" as="geometry" />
        </mxCell>
        <mxCell id="_A45xtu50W-eqhlQ53FJ-94" value="AWS Cloud" style="points=[[0,0],[0.25,0],[0.5,0],[0.75,0],[1,0],[1,0.25],[1,0.5],[1,0.75],[1,1],[0.75,1],[0.5,1],[0.25,1],[0,1],[0,0.75],[0,0.5],[0,0.25]];outlineConnect=0;gradientColor=none;html=1;whiteSpace=wrap;fontSize=12;fontStyle=0;container=1;pointerEvents=0;collapsible=0;recursiveResize=0;shape=mxgraph.aws4.group;grIcon=mxgraph.aws4.group_aws_cloud;strokeColor=#232F3E;fillColor=none;verticalAlign=top;align=left;spacingLeft=30;fontColor=#232F3E;dashed=0;fontFamily=Helvetica;labelBackgroundColor=none;" parent="1" vertex="1">
          <mxGeometry x="299" y="597" width="830" height="663" as="geometry" />
        </mxCell>
        <mxCell id="_A45xtu50W-eqhlQ53FJ-101" value="" style="shape=image;verticalLabelPosition=bottom;labelBackgroundColor=default;verticalAlign=top;aspect=fixed;imageAspect=0;image=https://encrypted-tbn0.gstatic.com/images?q=tbn:ANd9GcSyBfxCYD3tfkwU5_eyL5Xpo1Xdt_lp_zQZuQ&amp;usqp=CAU;" parent="1" vertex="1">
          <mxGeometry x="1019" y="789" width="43" height="43" as="geometry" />
        </mxCell>
        <mxCell id="zdkOnZrTmFXVlxLLtSqA-3" value="Cost Explorer API" style="sketch=0;points=[[0,0,0],[0.25,0,0],[0.5,0,0],[0.75,0,0],[1,0,0],[0,1,0],[0.25,1,0],[0.5,1,0],[0.75,1,0],[1,1,0],[0,0.25,0],[0,0.5,0],[0,0.75,0],[1,0.25,0],[1,0.5,0],[1,0.75,0]];outlineConnect=0;fontColor=#232F3E;fillColor=#7AA116;strokeColor=#ffffff;dashed=0;verticalLabelPosition=bottom;verticalAlign=top;align=center;html=1;fontSize=12;fontStyle=0;aspect=fixed;shape=mxgraph.aws4.resourceIcon;resIcon=mxgraph.aws4.cost_explorer;" vertex="1" parent="1">
          <mxGeometry x="520" y="1097" width="78" height="78" as="geometry" />
        </mxCell>
      </root>
    </mxGraphModel>
  </diagram>
</mxfile>
